<svg width="365" height="365" viewBox="0 0 365 365" fill="none" xmlns="http://www.w3.org/2000/svg">
<path d="M43.07 283.24C63.2837 293.46 96.0461 293.46 116.252 283.24C136.459 273.02 136.466 256.412 116.252 246.171C96.0388 235.929 63.2837 235.951 43.07 246.171C22.8563 256.391 22.8782 273.02 43.07 283.24Z" fill="#252525"/>
<path d="M321.93 283.24C301.724 293.46 268.954 293.46 248.748 283.24C228.541 273.02 228.541 256.412 248.748 246.171C268.954 235.929 301.724 235.951 321.93 246.171C342.136 256.391 342.122 273.02 321.93 283.24Z" fill="#252525"/>
<path d="M224.11 252.755L182.5 228.731L140.89 252.755L182.5 276.772L224.11 252.755Z" fill="#252525"/>
<path d="M241.958 113.624C255.682 101.273 270.428 85.7823 270.633 76.5259C264.26 76.3799 262.8 76.5259 258.632 79.6868C254.923 82.5046 239.703 101.769 234.542 105.105C227.709 106.821 215.416 108.821 209.495 108.931C208.447 108.942 207.432 108.568 206.641 107.879C204.502 106.04 202.838 106.098 200.509 104.959C198.684 104.054 197.976 103.018 197.589 103.339C197.202 103.66 196.458 104.996 197.472 106.478C198.139 107.346 198.922 108.117 199.801 108.77C197.598 108.519 195.44 107.961 193.392 107.113C188.479 105.142 186.033 105.755 187.997 112.223C189.223 116.267 192.72 118.713 202.597 118.968C206.227 119.134 209.865 119.039 213.481 118.683C220.708 117.742 229.016 117.596 234.914 116.851C237.535 116.513 239.991 115.388 241.958 113.624Z" fill="#FFB3B2"/>
<path d="M271.319 76.1244C266.603 75.2557 260.968 76.4894 257.208 80.1321C253.449 83.7748 245.302 93.2721 245.302 93.2721C245.302 93.2721 249.222 100.623 255.12 102.076L260.96 95.703L271.319 76.1244Z" fill="#FFC100"/>
<path opacity="0.1" d="M271.319 76.1244C266.603 75.2557 260.968 76.4894 257.208 80.1321C253.449 83.7748 245.302 93.2721 245.302 93.2721C245.302 93.2721 249.222 100.623 255.12 102.076L260.96 95.703L271.319 76.1244Z" fill="black"/>
<path d="M297.584 250.901H289.211V263.092H297.584V250.901Z" fill="#FFB3B2"/>
<path d="M268.132 235.814L259.764 236.101L260.183 248.285L268.551 247.997L268.132 235.814Z" fill="#FFB3B2"/>
<path d="M297.03 131.874C297.03 139.904 298.066 191.588 298.066 191.588C298.263 193.895 300.417 198.158 299.95 206.97C299.315 218.971 298.278 252.317 298.278 252.317C298.278 252.317 294.351 256.208 288.788 252.317C288.788 252.317 281.211 207.013 279.707 195.114C278.4 184.734 276.174 156.534 276.174 156.534L271.91 190.384C271.91 190.384 273.275 198.188 273.582 203.699C273.889 209.211 268.662 240.36 268.662 240.36C267.306 241.209 265.752 241.688 264.153 241.75C262.555 241.811 260.968 241.453 259.551 240.71C259.551 240.71 256.339 194.91 255.5 189.909C254.66 184.909 257.894 131.874 257.894 131.874H297.03Z" fill="#37474F"/>
<path d="M284.43 76.504C285.058 76.6573 288.657 77.5041 292.08 78.4093C293.5 78.7836 294.756 79.6177 295.651 80.7813C296.547 81.9449 297.031 83.3723 297.03 84.8406V131.874C291.19 138.262 270.691 141.24 257.872 131.874V91.0602C257.872 84.5413 261.523 76.7084 271.502 76.1244L284.43 76.504Z" fill="#EBEBEB"/>
<path d="M287.248 43.1284C287.922 43.0492 288.605 43.1251 289.245 43.3503C289.885 43.5755 290.465 43.944 290.941 44.4278C292.526 46.0484 292.197 49.0487 290.941 55.9472L286.043 56.5093L287.248 43.1284Z" fill="#2A2E34"/>
<path d="M258.675 41.1355C257.621 41.14 256.577 40.9262 255.609 40.5077C254.106 39.6463 253.711 41.3545 254.536 42.8437C255.083 43.9067 255.893 44.8121 256.888 45.474C257.883 46.1358 259.031 46.5321 260.223 46.6251C260.267 46.4134 261.632 42.7999 261.632 42.7999L258.675 41.1355Z" fill="#2A2E34"/>
<path d="M266.311 57.9766C271.597 57.9766 275.882 53.6918 275.882 48.4063C275.882 43.1208 271.597 38.836 266.311 38.836C261.026 38.836 256.741 43.1208 256.741 48.4063C256.741 53.6918 261.026 57.9766 266.311 57.9766Z" fill="#2A2E34"/>
<path d="M284.948 56.5093C285.678 56.9473 286.715 55.5457 287.613 54.6113C288.511 53.6769 291.438 52.4213 292.898 55.4654C294.358 58.5095 291.606 62.7654 289.299 63.4954C285.328 64.7437 284.729 62.196 284.729 62.196L284.43 76.5259C284.43 76.5259 281.824 82.8915 274.779 83.8259C267.735 84.7603 269.188 78.9714 271.502 76.1244V71.7444C271.502 71.7444 267.903 72.2919 266.151 72.0145C263.231 71.5619 261.384 69.2624 260.5 66.0942C259.077 60.9842 258.537 56.9108 259.77 46.9244C261.099 35.9744 273.838 35.8576 280.714 40.1865C287.591 44.5154 284.948 56.5093 284.948 56.5093Z" fill="#FFB3B2"/>
<path d="M284.583 58.5387C284.926 58.4073 286.707 55.4362 287.613 54.6113C288.868 53.4652 287.248 43.1284 287.248 43.1284C287.248 43.1284 288.518 39.2083 286.036 36.6095C283.554 34.0107 278.736 34.4195 275.239 34.3173C271.589 34.1859 267.662 33.9669 262.676 31.7988C257.69 29.6307 257.31 29.3752 256.69 31.5652C256.069 33.7552 255.836 38.7776 258.814 42.1429L261.296 43.0481C261.296 43.0481 262.632 44.238 267.289 44.8074C270.788 45.1887 274.318 45.1887 277.816 44.8074C279.167 44.6249 280.605 45.5374 281.057 49.8298C281.393 52.9396 282.51 59.3198 284.583 58.5387Z" fill="#2A2E34"/>
<path d="M287.24 43.9314L291.62 41.5735C291.48 41.2763 291.281 41.0107 291.035 40.7929C290.789 40.575 290.501 40.4096 290.189 40.3064C289.877 40.2033 289.547 40.1648 289.22 40.1931C288.892 40.2214 288.574 40.316 288.284 40.4712C287.699 40.8037 287.265 41.3484 287.07 41.9926C286.876 42.6367 286.937 43.3309 287.24 43.9314Z" fill="#2A2E34"/>
<path d="M271.509 71.7663C271.509 71.7663 278.035 70.4523 280.313 69.2405C281.654 68.5401 282.753 67.4512 283.466 66.1161C283.12 67.4402 282.512 68.6814 281.678 69.7661C280.006 71.8977 271.509 73.4672 271.509 73.4672V71.7663Z" fill="#F59595"/>
<path d="M271.509 54.8814C271.519 55.1392 271.605 55.3883 271.755 55.5977C271.906 55.8071 272.115 55.9675 272.356 56.059C272.597 56.1504 272.86 56.1688 273.112 56.1119C273.363 56.055 273.593 55.9253 273.771 55.7389C273.949 55.5525 274.069 55.3178 274.115 55.0639C274.161 54.8101 274.131 54.5483 274.029 54.3113C273.927 54.0743 273.758 53.8725 273.542 53.7312C273.326 53.5898 273.074 53.5151 272.816 53.5163C272.463 53.5277 272.128 53.6771 271.884 53.9322C271.639 54.1874 271.505 54.5282 271.509 54.8814Z" fill="#2A2E34"/>
<path d="M272.75 58.2973C272.75 58.3456 272.769 58.3919 272.803 58.426C272.837 58.4601 272.884 58.4793 272.932 58.4793C272.98 58.4793 273.026 58.4601 273.061 58.426C273.095 58.3919 273.114 58.3456 273.114 58.2973C273.114 58.249 273.095 58.2027 273.061 58.1686C273.026 58.1345 272.98 58.1153 272.932 58.1153C272.884 58.1153 272.837 58.1345 272.803 58.1686C272.769 58.2027 272.75 58.249 272.75 58.2973Z" fill="#F59595"/>
<path d="M274.217 57.4656C274.216 57.4902 274.22 57.5147 274.229 57.5377C274.238 57.5607 274.251 57.5817 274.268 57.5994C274.285 57.6171 274.305 57.6312 274.328 57.6408C274.351 57.6505 274.375 57.6554 274.4 57.6554C274.45 57.6554 274.498 57.6354 274.534 57.5998C274.569 57.5642 274.589 57.5159 274.589 57.4656C274.595 57.4381 274.594 57.4097 274.587 57.3824C274.581 57.3552 274.568 57.3298 274.55 57.3081C274.532 57.2865 274.51 57.269 274.484 57.257C274.459 57.245 274.431 57.2388 274.403 57.2388C274.375 57.2388 274.348 57.245 274.322 57.257C274.297 57.269 274.274 57.2865 274.257 57.3081C274.239 57.3298 274.226 57.3552 274.219 57.3824C274.212 57.4097 274.212 57.4381 274.217 57.4656Z" fill="#F59595"/>
<path d="M274.962 58.9256C274.96 58.9504 274.963 58.9754 274.971 58.9989C274.98 59.0224 274.993 59.0438 275.01 59.0618C275.027 59.0798 275.048 59.0938 275.071 59.1031C275.095 59.1123 275.119 59.1165 275.144 59.1154C275.195 59.1154 275.243 59.0954 275.279 59.0598C275.314 59.0242 275.334 58.9759 275.334 58.9256C275.334 58.8753 275.314 58.827 275.279 58.7914C275.243 58.7558 275.195 58.7358 275.144 58.7358C275.095 58.7377 275.049 58.7585 275.015 58.7939C274.981 58.8293 274.962 58.8765 274.962 58.9256Z" fill="#F59595"/>
<path d="M276.181 57.67C276.181 57.721 276.201 57.7701 276.236 57.8068C276.271 57.8436 276.32 57.8652 276.371 57.8671C276.396 57.8662 276.42 57.8603 276.443 57.8499C276.465 57.8395 276.486 57.8247 276.503 57.8064C276.52 57.7881 276.533 57.7666 276.542 57.7432C276.55 57.7198 276.554 57.6949 276.553 57.67C276.553 57.6209 276.534 57.5737 276.5 57.5383C276.466 57.5029 276.42 57.4821 276.371 57.4802C276.32 57.4802 276.272 57.5002 276.236 57.5358C276.201 57.5714 276.181 57.6197 276.181 57.67Z" fill="#F59595"/>
<path d="M270.684 57.2753C270.684 57.3236 270.703 57.3699 270.737 57.404C270.771 57.4381 270.818 57.4573 270.866 57.4573C270.914 57.4573 270.961 57.4381 270.995 57.404C271.029 57.3699 271.048 57.3236 271.048 57.2753C271.048 57.227 271.029 57.1807 270.995 57.1466C270.961 57.1125 270.914 57.0933 270.866 57.0933C270.818 57.0933 270.771 57.1125 270.737 57.1466C270.703 57.1807 270.684 57.227 270.684 57.2753Z" fill="#F59595"/>
<path d="M271.115 58.9256C271.113 58.9504 271.116 58.9754 271.124 58.9989C271.132 59.0224 271.146 59.0439 271.163 59.0618C271.18 59.0798 271.201 59.0938 271.224 59.1031C271.247 59.1123 271.272 59.1165 271.297 59.1154C271.322 59.1154 271.346 59.1105 271.369 59.1008C271.391 59.0912 271.412 59.0771 271.429 59.0594C271.446 59.0417 271.459 59.0207 271.468 58.9977C271.477 58.9747 271.481 58.9502 271.48 58.9256C271.48 58.8772 271.46 58.8308 271.426 58.7966C271.392 58.7623 271.346 58.7431 271.297 58.7431C271.249 58.7431 271.202 58.7623 271.168 58.7966C271.134 58.8308 271.115 58.8772 271.115 58.9256Z" fill="#F59595"/>
<path d="M269.085 57.852C269.085 57.9003 269.104 57.9466 269.139 57.9807C269.173 58.0148 269.219 58.034 269.267 58.034C269.316 58.034 269.362 58.0148 269.396 57.9807C269.43 57.9466 269.449 57.9003 269.449 57.852C269.449 57.8037 269.43 57.7574 269.396 57.7233C269.362 57.6892 269.316 57.67 269.267 57.67C269.219 57.67 269.173 57.6892 269.139 57.7233C269.104 57.7574 269.085 57.8037 269.085 57.852Z" fill="#F59595"/>
<path d="M263.391 57.2028C263.391 57.2519 263.41 57.2991 263.444 57.3345C263.478 57.3699 263.525 57.3907 263.574 57.3926C263.599 57.3917 263.623 57.3858 263.646 57.3754C263.669 57.365 263.689 57.3502 263.706 57.3319C263.723 57.3136 263.736 57.2921 263.745 57.2687C263.753 57.2453 263.757 57.2204 263.756 57.1955C263.756 57.1464 263.737 57.0992 263.703 57.0638C263.669 57.0284 263.623 57.0076 263.574 57.0057C263.549 57.0066 263.524 57.0125 263.502 57.0229C263.479 57.0333 263.459 57.0481 263.442 57.0664C263.425 57.0847 263.412 57.1062 263.403 57.1296C263.394 57.153 263.39 57.1779 263.391 57.2028Z" fill="#F59595"/>
<path d="M262.106 58.1007C262.105 58.1253 262.109 58.1498 262.118 58.1728C262.127 58.1958 262.14 58.2167 262.157 58.2345C262.174 58.2522 262.195 58.2663 262.217 58.2759C262.24 58.2856 262.264 58.2905 262.289 58.2905C262.338 58.2886 262.384 58.2678 262.418 58.2324C262.453 58.197 262.472 58.1498 262.471 58.1007C262.471 58.0523 262.452 58.0059 262.418 57.9716C262.384 57.9374 262.337 57.9182 262.289 57.9182C262.241 57.9182 262.194 57.9374 262.16 57.9716C262.126 58.0059 262.106 58.0523 262.106 58.1007Z" fill="#F59595"/>
<path d="M261.099 57.1371C261.098 57.162 261.102 57.1869 261.111 57.2103C261.119 57.2337 261.133 57.2552 261.149 57.2735C261.166 57.2918 261.187 57.3066 261.209 57.317C261.232 57.3274 261.257 57.3333 261.282 57.3342C261.326 57.3254 261.367 57.3013 261.396 57.2661C261.425 57.2308 261.441 57.1865 261.441 57.1407C261.441 57.095 261.425 57.0507 261.396 57.0154C261.367 56.9801 261.326 56.9561 261.282 56.9473C261.233 56.9492 261.186 56.97 261.152 57.0054C261.118 57.0408 261.099 57.088 261.099 57.1371Z" fill="#F59595"/>
<path d="M259.88 57.5824C259.875 57.6099 259.875 57.6383 259.882 57.6655C259.889 57.6928 259.902 57.7181 259.919 57.7398C259.937 57.7615 259.96 57.779 259.985 57.791C260.01 57.803 260.038 57.8092 260.066 57.8092C260.094 57.8092 260.122 57.803 260.147 57.791C260.173 57.779 260.195 57.7615 260.213 57.7398C260.231 57.7181 260.243 57.6928 260.25 57.6655C260.257 57.6383 260.258 57.6099 260.252 57.5824C260.252 57.5333 260.233 57.4861 260.199 57.4507C260.165 57.4153 260.119 57.3945 260.07 57.3926C260.019 57.3926 259.971 57.4126 259.936 57.4482C259.9 57.4838 259.88 57.5321 259.88 57.5824Z" fill="#F59595"/>
<path d="M259.676 56.1516C259.675 56.1765 259.679 56.2014 259.687 56.2248C259.696 56.2482 259.709 56.2697 259.726 56.288C259.743 56.3063 259.763 56.3211 259.786 56.3315C259.809 56.3419 259.833 56.3478 259.858 56.3487C259.903 56.3399 259.943 56.3158 259.972 56.2806C260.002 56.2453 260.017 56.201 260.017 56.1552C260.017 56.1095 260.002 56.0652 259.972 56.0299C259.943 55.9946 259.903 55.9706 259.858 55.9618C259.809 55.9637 259.763 55.9845 259.729 56.0199C259.695 56.0553 259.676 56.1025 259.676 56.1516Z" fill="#F59595"/>
<path d="M272.896 49.9466L275.692 51.4869C275.882 51.1075 275.92 50.6702 275.799 50.2636C275.679 49.857 275.408 49.5114 275.042 49.2969C274.859 49.1954 274.658 49.1317 274.45 49.1095C274.242 49.0874 274.032 49.1071 273.832 49.1677C273.631 49.2283 273.445 49.3285 273.285 49.4623C273.124 49.5961 272.992 49.7608 272.896 49.9466Z" fill="#2A2E34"/>
<path d="M272.1 63.9115L269.115 65.0284C269.18 65.2285 269.285 65.4134 269.424 65.5722C269.562 65.731 269.731 65.8604 269.92 65.953C270.109 66.0455 270.315 66.0992 270.525 66.1109C270.735 66.1227 270.946 66.0921 271.144 66.0212C271.546 65.8626 271.871 65.5537 272.049 65.16C272.228 64.7662 272.246 64.3185 272.1 63.9115Z" fill="#F59595"/>
<path d="M260.661 51.0343L263.216 49.0706C263.096 48.9029 262.944 48.7608 262.768 48.6526C262.592 48.5444 262.397 48.4722 262.193 48.4403C261.989 48.4083 261.781 48.4173 261.581 48.4666C261.38 48.5159 261.192 48.6046 261.026 48.7275C260.681 48.9917 260.45 49.3785 260.382 49.8079C260.314 50.2373 260.414 50.6764 260.661 51.0343Z" fill="#2A2E34"/>
<path d="M261.449 54.5091C261.461 54.7647 261.547 55.0114 261.698 55.2185C261.848 55.4255 262.056 55.5839 262.295 55.6739C262.535 55.7639 262.796 55.7816 263.045 55.7248C263.295 55.668 263.522 55.5391 263.699 55.3543C263.876 55.1694 263.995 54.9367 264.04 54.6849C264.086 54.4331 264.057 54.1735 263.957 53.9381C263.856 53.7027 263.689 53.502 263.476 53.3608C263.262 53.2196 263.012 53.1443 262.756 53.144C262.402 53.1536 262.067 53.3023 261.822 53.5579C261.578 53.8135 261.444 54.1553 261.449 54.5091Z" fill="#2A2E34"/>
<path d="M267.289 53.2681L266.859 61.1302L262.756 59.7286L267.289 53.2681Z" fill="#F59595"/>
<path d="M289.211 258.96V257.763C288.408 258.113 286.547 265.216 283.225 268.246C280.583 270.655 276.984 273.436 276.064 276.122C275.144 278.809 281.079 280.459 283.547 280.021C286.415 279.51 291.387 277.495 292.635 275.641C293.883 273.786 294.46 271.012 295.475 269.64C296.489 268.268 298.825 266.72 299.373 265.151C299.68 264.282 299.322 262.369 298.898 260.771C298.504 259.311 298.088 257.661 297.584 257.799C297.584 257.982 297.584 258.712 297.584 258.712C296.971 259.391 295.292 260.055 293.394 260.128C292.168 260.143 289.197 259.88 289.211 258.96Z" fill="#2A2E34"/>
<path d="M260.099 245.703C259.661 245.703 259.311 246.331 258.347 247.368C256.914 248.814 255.252 250.013 253.427 250.916C250.288 252.485 244.192 254.894 241.433 256.142C239.71 256.916 239.79 258.997 241.572 260.179C243.353 261.362 247.652 262.223 252.821 261.063C255.631 260.435 259.296 257.836 261.581 257.975C263.866 258.113 268.238 258.084 269.954 256.909C271.669 255.734 270.976 253.208 270.494 251.069C269.969 248.711 269.209 245.097 268.428 245.229V245.959C267.421 247.477 262.296 248.105 260.084 246.981L260.099 245.703Z" fill="#2A2E34"/>
<path d="M276.196 156.534C271.86 155.187 267.872 152.904 264.516 149.847C264.516 149.847 266.771 154.059 273.458 157.979L273.093 181.004L276.196 156.534Z" fill="#2A2E34"/>
<path d="M123.049 113.624C109.317 101.273 94.5423 85.7823 94.3744 76.5259C100.74 76.3799 102.207 76.5259 106.368 79.6868C110.077 82.5046 125.297 101.769 130.458 105.105C137.291 106.821 149.592 108.821 155.505 108.931C156.553 108.942 157.568 108.568 158.359 107.879C160.498 106.04 162.162 106.098 164.491 104.959C166.323 104.054 167.024 103.018 167.411 103.339C167.915 103.748 168.542 104.996 167.528 106.478C166.861 107.346 166.078 108.117 165.199 108.77C167.402 108.519 169.56 107.961 171.608 107.113C176.521 105.142 178.967 105.755 177.01 112.223C175.784 116.267 172.28 118.713 162.41 118.968C158.78 119.134 155.143 119.039 151.526 118.683C144.299 117.742 135.999 117.596 130.101 116.851C127.477 116.518 125.017 115.392 123.049 113.624Z" fill="#9C5456"/>
<path d="M86.5269 34.4268H88.6512C93.4914 34.4268 98.1334 36.3496 101.556 39.7721C104.978 43.1946 106.901 47.8366 106.901 52.6768V74.2994H84.2712C82.1708 74.2975 80.0914 73.8819 78.1516 73.0763C76.2118 72.2708 74.4497 71.091 72.9658 69.6045C71.482 68.1179 70.3054 66.3536 69.5034 64.4124C68.7014 62.4711 68.2896 60.3909 68.2915 58.2905V52.6622C68.2915 47.822 70.2143 43.18 73.6368 39.7575C77.0593 36.335 81.7013 34.4122 86.5415 34.4122L86.5269 34.4268Z" fill="#2A2E34"/>
<path d="M50.8591 246.338L51.7351 245.433C51.0635 246.842 48.2749 253.025 48.5596 257.756C48.7859 261.515 49.4648 266.267 48.18 268.968C46.8514 271.786 41.61 268.107 40.1062 265.961C38.3104 263.472 36.6971 259.515 36.9964 256.157C37.2081 253.799 38.0403 251.565 38.2812 249.784C38.5221 248.003 37.887 245.127 38.6389 243.528C39.0477 242.645 40.7267 241.469 42.2305 240.557C43.6102 239.725 45.1505 238.805 45.406 239.279L44.7344 239.966C44.6979 240.922 45.4644 242.667 46.8587 244.112C47.7493 245.054 50.1729 247.054 50.8591 246.338Z" fill="#FFC100"/>
<path opacity="0.1" d="M50.8591 246.338L51.7351 245.433C51.0635 246.842 48.2749 253.025 48.5596 257.756C48.7859 261.515 49.4648 266.267 48.18 268.968C46.8514 271.786 41.61 268.107 40.1062 265.961C38.3104 263.472 36.6971 259.515 36.9964 256.157C37.2081 253.799 38.0403 251.565 38.2812 249.784C38.5221 248.003 37.887 245.127 38.6389 243.528C39.0477 242.645 40.7267 241.469 42.2305 240.557C43.6102 239.725 45.1505 238.805 45.406 239.279L44.7344 239.966C44.6979 240.922 45.4644 242.667 46.8587 244.112C47.7493 245.054 50.1729 247.054 50.8591 246.338Z" fill="black"/>
<path d="M48.8078 261.114C48.7275 259.96 48.6253 258.814 48.5596 257.748C48.3625 254.441 49.6619 250.448 50.6985 247.828C51.2898 246.368 56.8013 238.506 56.8013 238.506L49.1071 231.936L44.7271 239.966L44.5738 240.119V240.17C43.6029 241.776 43.1138 248.098 42.5371 251.989C42.1575 254.595 42.3692 258.559 44.5519 261.355C46.6543 263.99 48.5961 264.421 48.8078 261.114Z" fill="#9C5456"/>
<path d="M97.4769 249.777C97.3575 249.81 97.2517 249.881 97.1744 249.977C97.0971 250.074 97.0523 250.193 97.0462 250.317C96.944 251.047 96.8272 252.376 96.6082 253.602C96.3089 255.237 96.0096 257.588 96.3016 258.887C96.5936 260.187 99.6523 262.034 101.711 262.304C103.769 262.574 107.31 264.494 108.967 265.954C110.996 267.735 115.296 269.166 118.187 269.202C121.574 269.239 124.231 268.472 125.005 265.99C125.326 264.961 124.48 263.705 120.107 261.705C120.107 261.705 117.917 260.595 116.639 259.836C110.31 256.018 108.135 253.821 106.244 249.843L97.4769 249.777Z" fill="#FFC100"/>
<path opacity="0.1" d="M97.4769 249.777C97.3575 249.81 97.2517 249.881 97.1744 249.977C97.0971 250.074 97.0523 250.193 97.0462 250.317C96.944 251.047 96.8272 252.376 96.6082 253.602C96.3089 255.237 96.0096 257.588 96.3016 258.887C96.5936 260.187 99.6523 262.034 101.711 262.304C103.769 262.574 107.31 264.494 108.967 265.954C110.996 267.735 115.296 269.166 118.187 269.202C121.574 269.239 124.231 268.472 125.005 265.99C125.326 264.961 124.48 263.705 120.107 261.705C120.107 261.705 117.917 260.595 116.639 259.836C110.31 256.018 108.135 253.821 106.244 249.843L97.4769 249.777Z" fill="black"/>
<path d="M108.66 253.091C107.595 251.425 106.993 249.505 106.916 247.528L106.777 242.134H97.4477V249.769V250.937C97.9733 254.646 101.47 255.084 104.39 257.135C105.85 258.157 111.529 262.523 115.34 263.231C118.45 263.8 119.61 262.574 120.027 261.698C115.918 259.277 112.104 256.389 108.66 253.091Z" fill="#9C5456"/>
<path d="M67.3279 193.552C63.1786 197.233 59.9316 201.819 57.8379 206.955C54.9617 214.277 46.72 235.732 46.72 235.732C46.72 235.732 50.3262 242.061 55.2318 242.491C55.2318 242.491 78.5261 208.232 81.2052 200.224C83.9208 196.136 87.3153 176.003 89.7754 162.075L89.863 162.228L94.0532 191.778C92.9691 195.245 92.1851 198.799 91.7099 202.4C90.9799 209.649 97.1192 244.74 97.1192 244.74C97.1192 244.74 101.287 246.93 107.054 244.995C107.054 244.995 107.982 199.239 108.639 190.501C109.734 175.835 110.266 134.473 107.58 125.794L69.1456 127.94C65.9555 137.152 65.7073 143.036 66.1161 153.139C66.4957 163.578 67.3279 193.552 67.3279 193.552Z" fill="#37474F"/>
<path d="M89.8411 162.228L92.0311 148.584C92.0311 148.584 101.266 146.664 105.456 142.744C105.456 142.744 101.076 148.212 94.5058 150L92.053 160.505L93.7247 189.508L89.8411 162.228Z" fill="#2A2E34"/>
<path d="M80.9716 76.9201C72.3503 77.5114 69.642 81.0446 69.5836 86.2349C69.6188 90.3803 70.3162 94.4934 71.6495 98.4186L75.5623 111.69C75.5623 111.69 72.3211 119.048 69.1091 127.984C84.1909 136.401 103.018 131.977 107.558 125.837C107.748 124.531 106.58 114.347 105.865 107.69C108.522 101.032 109.223 96.8053 108.098 92.4034C106.018 84.2274 97.9441 76.2631 94.3744 76.5478L80.9716 76.9201Z" fill="#FFC100"/>
<path opacity="0.1" d="M80.9716 76.9201C72.3503 77.5114 69.642 81.0446 69.5836 86.2349C69.6188 90.3803 70.3162 94.4934 71.6495 98.4186L75.5623 111.69C75.5623 111.69 72.3211 119.048 69.1091 127.984C84.1909 136.401 103.018 131.977 107.558 125.837C107.748 124.531 106.58 114.347 105.865 107.69C108.522 101.032 109.223 96.8053 108.098 92.4034C106.018 84.2274 97.9441 76.2631 94.3744 76.5478L80.9716 76.9201Z" fill="black"/>
<path d="M100.112 130.568L86.8189 116.238L69.8537 90.4689C70.1806 93.1729 70.7823 95.8366 71.6495 98.4186L75.5623 111.69C75.5623 111.69 72.3211 119.048 69.1091 127.984C79.6722 133.86 92.0749 133.451 100.112 130.568Z" fill="#FFC100"/>
<path opacity="0.1" d="M100.112 130.568L86.8189 116.238L69.8537 90.4689C70.1806 93.1729 70.7823 95.8366 71.6495 98.4186L75.5623 111.69C75.5623 111.69 72.3211 119.048 69.1091 127.984C79.6722 133.86 92.0749 133.451 100.112 130.568Z" fill="black"/>
<path d="M67.89 40.6245L70.5034 44.8147C70.235 44.9991 69.9317 45.1268 69.6122 45.19C69.2928 45.2532 68.9637 45.2505 68.6453 45.1822C68.3269 45.1138 68.0258 44.9813 67.7603 44.7926C67.4949 44.6039 67.2707 44.363 67.1016 44.0847C66.7699 43.5154 66.6668 42.8414 66.8132 42.1991C66.9596 41.5567 67.3445 40.9939 67.89 40.6245Z" fill="#2A2E34"/>
<path d="M65.0357 45.406L69.9267 44.676C69.9938 44.9993 69.9935 45.3329 69.9258 45.6561C69.8582 45.9793 69.7246 46.285 69.5335 46.5542C69.3423 46.8235 69.0977 47.0504 68.815 47.2208C68.5322 47.3913 68.2173 47.5016 67.89 47.5449C67.2309 47.6216 66.5674 47.4426 66.0363 47.0446C65.5053 46.6467 65.1472 46.0602 65.0357 45.406Z" fill="#2A2E34"/>
<path d="M100.55 42.2305C102.587 43.435 105.105 48.5669 104.857 59.3125C104.645 68.4229 101.696 70.6713 100.214 71.321C98.7325 71.9707 95.8709 71.5765 93.0896 71.1093V76.577C93.0896 76.577 96.9367 81.0446 96.6885 83.5485C96.4403 86.0524 91.1405 86.651 87.5489 84.1982C85.2164 82.5236 83.2162 80.4293 81.6505 78.0224V64.8094C81.6505 64.8094 79.7744 67.3133 76.7011 65.2766C73.6278 63.2399 73.5183 58.1883 75.2995 56.3779C77.0807 54.5675 80.9278 55.1369 81.6505 57.6408C81.6505 57.6408 86.0816 57.8014 91.9873 54.5602C94.2835 53.3231 96.2557 51.5619 97.7435 49.4196C99.2313 47.2772 100.193 44.8142 100.55 42.2305Z" fill="#9C5456"/>
<path d="M93.6663 57.0203C93.6689 57.245 93.6053 57.4656 93.4835 57.6544C93.3617 57.8433 93.1871 57.9923 92.9814 58.0827C92.7756 58.1731 92.5478 58.201 92.3263 58.163C92.1048 58.1249 91.8994 58.0226 91.7356 57.8687C91.5718 57.7149 91.4568 57.5162 91.405 57.2975C91.3532 57.0788 91.3669 56.8497 91.4443 56.6387C91.5217 56.4277 91.6594 56.2442 91.8403 56.1108C92.0212 55.9775 92.2374 55.9003 92.4618 55.8888C92.6152 55.8839 92.7681 55.9093 92.9116 55.9636C93.0552 56.0178 93.1867 56.0998 93.2986 56.2049C93.4104 56.31 93.5005 56.4361 93.5636 56.576C93.6267 56.7159 93.6616 56.8669 93.6663 57.0203Z" fill="#2A2E34"/>
<path d="M94.9949 64.7437L97.6521 65.5978C97.6036 65.7754 97.5198 65.9414 97.4057 66.086C97.2917 66.2305 97.1497 66.3506 96.9883 66.4392C96.8269 66.5277 96.6493 66.5829 96.4661 66.6014C96.2829 66.6199 96.0979 66.6013 95.922 66.5468C95.564 66.4248 95.2674 66.1687 95.0944 65.8324C94.9215 65.4961 94.8858 65.1058 94.9949 64.7437Z" fill="#7D3336"/>
<path d="M103.061 53.509L100.74 51.8957C100.838 51.7405 100.967 51.6068 101.118 51.5025C101.269 51.3982 101.44 51.3254 101.62 51.2886C101.8 51.2518 101.985 51.2517 102.165 51.2883C102.345 51.3249 102.516 51.3974 102.667 51.5015C102.983 51.7177 103.201 52.0492 103.275 52.4247C103.348 52.8001 103.272 53.1895 103.061 53.509Z" fill="#2A2E34"/>
<path d="M102.529 56.21C102.531 56.4347 102.468 56.6553 102.346 56.8441C102.224 57.033 102.049 57.182 101.844 57.2724C101.638 57.3628 101.41 57.3907 101.189 57.3527C100.967 57.3146 100.762 57.2123 100.598 57.0584C100.434 56.9046 100.319 56.7059 100.267 56.4872C100.215 56.2685 100.229 56.0394 100.306 55.8284C100.384 55.6174 100.522 55.4339 100.703 55.3005C100.883 55.1672 101.1 55.09 101.324 55.0785C101.477 55.0736 101.63 55.099 101.774 55.1533C101.917 55.2075 102.049 55.2895 102.161 55.3946C102.273 55.4997 102.363 55.6258 102.426 55.7657C102.489 55.9056 102.524 56.0566 102.529 56.21Z" fill="#2A2E34"/>
<path d="M96.9294 55.5384L97.1119 62.4369L100.74 61.3127L96.9294 55.5384Z" fill="#7D3336"/>
<path d="M93.0896 71.1093C90.1696 70.7297 84.1325 68.9996 83.1981 66.6125C83.5712 67.8202 84.308 68.8833 85.3078 69.6566C87.1109 71.1969 93.0896 72.9343 93.0896 72.9343V71.1093Z" fill="#7D3336"/>
<path d="M182.5 198.137L126.348 165.681V116.063L125.166 115.384V98.8274L182.5 131.933V198.137Z" fill="#FFC100"/>
<path opacity="0.1" d="M182.5 198.137L126.348 165.681V116.063L125.166 115.384V98.8274L182.5 131.933V198.137Z" fill="black"/>
<path opacity="0.15" d="M182.5 148.482L162.396 136.875L162.388 120.297L161.009 119.523L161.001 136.072L126.348 116.063V118.442L161.001 138.444L160.994 185.719L162.403 186.53L162.396 139.247L182.5 150.854V148.482Z" fill="black"/>
<path d="M182.5 198.137L238.345 165.914V116.238L239.834 115.384V98.8274L182.5 131.933V198.137Z" fill="#FFC100"/>
<path opacity="0.1" d="M238.345 116.238L203.998 136.072L203.991 119.523L202.611 120.297V136.875L182.5 148.482V150.854L202.604 139.255L202.597 186.53L204.006 185.719L203.998 138.459L238.345 118.647V116.238Z" fill="black"/>
<path d="M239.834 98.8274L182.5 65.7292L125.166 98.8274L182.5 131.933L239.834 98.8274Z" fill="#FFC100"/>
<path opacity="0.4" d="M239.834 98.8274L182.5 65.7292L125.166 98.8274L182.5 131.933L239.834 98.8274Z" fill="white"/>
<path opacity="0.15" d="M172.849 99.4844L145.445 87.1474L146.664 86.4174L174.302 98.8347" fill="black"/>
<path opacity="0.15" d="M192.143 99.4844L219.547 87.1474L218.321 86.4174L190.683 98.8347" fill="black"/>
<path opacity="0.15" d="M203.991 119.523L183.646 104.419V104.412L182.5 103.558L182.493 103.565V103.558L181.339 104.412L181.347 104.419L160.994 119.523L162.381 120.297L182.493 105.273L202.611 120.297L203.991 119.523Z" fill="black"/>
<path d="M218.336 111.245V179.091L204.006 187.369L203.991 119.523L218.336 111.245Z" fill="#37474F"/>
<path d="M204.006 187.369L202.597 186.53L204.006 185.719V187.369Z" fill="#2A2E34"/>
<path d="M146.664 111.245V179.091L160.994 187.369L161.009 119.523L146.664 111.245Z" fill="#2A2E34"/>
<path d="M160.994 187.369L162.403 186.53L160.994 185.719V187.369Z" fill="black"/>
<path d="M161.009 119.523L182.507 103.565L190.705 98.8274L218.336 86.4174L204.006 78.1392L182.507 94.097L174.317 98.8347L146.664 111.245L161.009 119.523Z" fill="#455A64"/>
<path d="M174.317 98.8347L172.857 99.4844L177.682 101.623L181.354 104.412L182.507 103.558L178.923 100.901L174.317 98.8347Z" fill="#2A2E34"/>
<path d="M203.991 119.523L178.923 100.901L146.664 86.4174L161.001 78.1392L186.092 96.7615L218.336 111.245L203.991 119.523Z" fill="#455A64"/>
<path d="M178.003 96.1118C178.003 96.1118 161.162 110.091 133.663 106.908C133.663 106.908 145.343 114.552 159.622 112.821C159.622 112.821 157.57 118.034 145.54 124.377C145.54 124.377 175.594 124.655 183.361 99.7034L178.003 96.1118Z" fill="#37474F"/>
<path d="M162.169 121.18C170.491 118.056 179.573 111.894 183.339 99.7253L177.981 96.1337C174.725 98.6018 171.165 100.641 167.389 102.2C167.389 102.2 173.229 104.755 179.186 103.178C177.836 107.239 175.613 110.955 172.673 114.065C169.733 117.175 166.148 119.604 162.169 121.18Z" fill="#2A2E34"/>
<path d="M140.664 77.8253C140.664 77.8253 144.007 73.9125 154.264 75.6791C160.454 76.7522 170.966 83.9646 176.164 95.9804C176.821 97.4988 178.295 98.0098 179.084 99.0318C179.267 99.2606 179.467 99.4754 179.682 99.6742L182.931 99.7107C182.931 88.4833 176.631 77.1537 170.674 70.5983C164.717 64.0429 154.906 60.8382 147.913 60.59C145.433 60.4754 142.961 60.9507 140.7 61.977C138.795 67.2841 138.006 72.5474 140.664 77.8253Z" fill="#37474F"/>
<path d="M175.448 94.4693C175.448 94.4693 181.288 92.4983 178.886 83.1397C181.406 88.3113 182.779 93.9666 182.909 99.718L179.66 99.6815C179.445 99.4827 179.245 99.2679 179.062 99.0391C178.273 98.0171 176.799 97.5061 176.142 95.9877C175.93 95.4621 175.689 94.9657 175.448 94.4693Z" fill="#2A2E34"/>
<path d="M146.65 85.0158C144.189 83.045 142.153 80.5966 140.664 77.818C137.999 72.5401 138.788 67.2768 140.664 61.9551C134.648 64.6123 131.057 72.4306 129.714 78.7451C128.984 82.2783 128.896 85.3151 129.495 86.7751C131.181 90.7463 141.058 106.792 183.361 99.7253L183.318 95.2796C172.725 94.6226 154.227 91.396 146.65 85.0158Z" fill="#37474F"/>
<path d="M140.664 77.8253C140.664 77.8253 140.16 65.4591 147.913 60.59C145.433 60.4754 142.961 60.9507 140.7 61.977C138.795 67.2841 138.006 72.5474 140.664 77.8253Z" fill="#2A2E34"/>
<path d="M186.997 96.1118C186.997 96.1118 203.838 110.091 231.337 106.908C231.337 106.908 219.657 114.552 205.378 112.821C205.378 112.821 207.429 118.034 219.46 124.377C219.46 124.377 189.406 124.655 181.639 99.7034L186.997 96.1118Z" fill="#37474F"/>
<path d="M185.814 103.164C191.742 104.74 197.611 102.185 197.611 102.185L196.509 101.689L196.341 101.616L195.363 101.156L195.144 101.054L194.253 100.609C194.178 100.574 194.105 100.535 194.034 100.492C193.749 100.353 193.479 100.207 193.209 100.068L192.99 99.9516L192.26 99.5355L192.048 99.4187L191.362 99.0245L191.172 98.915L190.53 98.55L190.355 98.4478L189.8 98.0974L189.639 97.9952L189.15 97.674L189.004 97.5791L188.581 97.2944L188.457 97.2068L188.099 96.9586L187.99 96.8783L187.705 96.6739L187.61 96.6009L187.398 96.4403L187.303 96.3673L187.172 96.2724L187.084 96.2067L187.041 96.1629L186.989 96.1264L185.237 97.3017L181.631 99.718C189.391 124.669 219.445 124.392 219.453 124.392C203.991 123.662 187.749 111.931 185.814 103.164Z" fill="#2A2E34"/>
<path d="M224.336 77.8253C224.336 77.8253 220.993 73.9125 210.736 75.6791C204.546 76.7522 194.034 83.9646 188.836 95.9804C188.179 97.4988 186.705 98.0098 185.916 99.0318C185.733 99.2606 185.533 99.4754 185.318 99.6742L182.069 99.7107C182.069 88.4833 188.369 77.1537 194.326 70.5983C200.283 64.0429 210.094 60.8382 217.087 60.59C219.567 60.4754 222.039 60.9507 224.3 61.977C226.205 67.2841 227.03 72.5474 224.336 77.8253Z" fill="#37474F"/>
<path d="M189.552 94.4693C189.552 94.4693 183.712 92.4983 186.113 83.1397C183.594 88.3113 182.221 93.9666 182.091 99.718L185.34 99.6815C185.555 99.4827 185.755 99.2679 185.938 99.0391C186.727 98.0171 188.201 97.5061 188.858 95.9877C189.07 95.4621 189.311 94.9657 189.552 94.4693Z" fill="#2A2E34"/>
<path d="M218.35 85.0158C220.811 83.045 222.847 80.5966 224.336 77.818C227.001 72.5401 226.212 67.2768 224.336 61.9551C230.351 64.6123 233.943 72.4306 235.286 78.7451C236.016 82.2783 236.104 85.3151 235.505 86.7751C233.819 90.7463 223.942 106.792 181.639 99.7253L181.682 95.2796C192.275 94.6226 210.773 91.396 218.35 85.0158Z" fill="#37474F"/>
<path d="M224.336 77.8253C224.336 77.8253 224.84 65.4591 217.087 60.59C219.567 60.4754 222.039 60.9507 224.3 61.977C226.205 67.2841 227.03 72.5474 224.336 77.8253Z" fill="#2A2E34"/>
<path d="M188.34 96.7761C188.294 96.3466 188.134 95.937 187.878 95.5894C187.621 95.2418 187.277 94.9686 186.88 94.7978C185.475 94.3045 183.987 94.0913 182.5 94.17C180.971 94.0912 179.443 94.3401 178.018 94.9C177.653 95.0756 177.339 95.3427 177.108 95.6753C176.876 96.0078 176.734 96.3946 176.696 96.798C176.543 98.1266 176.448 100.375 177.324 101.652C178.767 102.889 180.615 103.551 182.515 103.514C184.406 103.555 186.246 102.892 187.676 101.652C188.544 100.353 188.457 98.1047 188.34 96.7761Z" fill="#455A64"/>
<path d="M85.2275 121.136C70.153 98.3967 62.8676 79.7014 75.0805 78.0662C78.8108 78.9349 81.4388 83.2346 84.6946 92.8195C84.6946 92.8195 91.3741 107.288 94.3744 113.478C99.9954 117.983 110.821 128.078 116.274 130.363C117.245 130.758 118.669 129.911 119.654 129.56C122.311 128.633 123.844 129.283 126.436 129.057C128.465 128.881 129.502 128.173 129.75 128.611C130.052 129.113 130.144 129.713 130.008 130.283C129.871 130.852 129.517 131.345 129.02 131.655C128.239 132.252 127.311 132.625 126.334 132.736C126.334 132.736 127.56 133.663 132.276 133.648C137.568 133.648 139.627 135.057 135.451 140.372C132.831 143.693 128.684 144.701 119.391 141.357C115.951 140.193 112.599 138.783 109.361 137.138C102.974 133.634 105.237 135.101 100.214 131.918C96.1483 129.341 86.6948 123.37 85.2275 121.136Z" fill="#9C5456"/>
<path d="M279.772 121.136C297.701 96.725 304.33 80.0445 292.109 78.4093C288.386 79.278 285.751 83.585 282.495 93.1699C282.495 93.1699 273.626 107.295 270.633 113.486C265.005 117.99 254.179 128.086 248.733 130.371C247.769 130.765 246.338 129.918 245.353 129.568C242.696 128.641 241.163 129.29 238.571 129.064C236.542 128.889 235.505 128.181 235.257 128.619C234.956 129.121 234.863 129.721 235 130.29C235.136 130.859 235.491 131.352 235.987 131.663C236.768 132.259 237.697 132.633 238.673 132.743C238.673 132.743 237.447 133.67 232.731 133.656C227.446 133.656 225.387 135.065 229.556 140.379C232.176 143.7 236.323 144.708 245.616 141.364C249.056 140.2 252.408 138.79 255.646 137.145C262.041 133.641 259.77 135.108 264.793 131.926C268.859 129.341 278.203 123.275 279.772 121.136Z" fill="#FFB3B2"/>
<path d="M290.54 78.0005C290.54 78.0005 294.869 78.0005 297.052 80.1321C299.234 82.2637 300.052 86.1838 297.847 92.2063C295.643 98.2288 289.62 108.084 289.62 108.084C289.62 108.084 282.525 108.471 276.217 102.076L282.51 90.3521C282.51 90.3521 284.941 81.5264 290.54 78.0005Z" fill="#FFC100"/>
<path opacity="0.1" d="M290.54 78.0005C290.54 78.0005 294.869 78.0005 297.052 80.1321C299.234 82.2637 300.052 86.1838 297.847 92.2063C295.643 98.2288 289.62 108.084 289.62 108.084C289.62 108.084 282.525 108.471 276.217 102.076L282.51 90.3521C282.51 90.3521 284.941 81.5264 290.54 78.0005Z" fill="black"/>
</svg>
